Coordinates
nRows=252
nColumns=2
inDegrees=yes
endheader
time	ankle_angle_r	
3.19355	 18.539711	
3.22681	 18.519436	
3.26008	 18.517289	
3.29335	 18.521687	
3.32661	 18.517055	
3.35988	 18.509966	
3.39315	 18.514545	
3.42641	 18.529238	
3.45968	 18.538659	
3.49294	 18.533624	
3.52621	 18.520135	
3.55948	 18.508727	
3.59274	 18.505660	
3.62601	 18.514255	
3.65927	 18.529243	
3.69254	 18.538392	
3.72581	 18.539936	
3.75907	 18.539872	
3.79234	 18.537995	
3.8256	 18.532300	
3.85887	 18.522868	
3.89214	 18.512039	
3.9254	 18.508381	
3.95867	 18.514659	
3.99194	 18.520832	
4.0252	 18.523113	
4.05847	 18.525649	
4.09173	 18.526131	
4.125	 18.522011	
4.15827	 18.516144	
4.19153	 18.509674	
4.2248	 18.500781	
4.25806	 18.489693	
4.29133	 18.480499	
4.3246	 18.475247	
4.35786	 18.469859	
4.39113	 18.463018	
4.4244	 18.462073	
4.45766	 18.470487	
4.49093	 18.481875	
4.52419	 18.494617	
4.55746	 18.513579	
4.59073	 18.532876	
4.62399	 18.536806	
4.65726	 18.519518	
4.69052	 18.493279	
4.72379	 18.478195	
4.75706	 18.479694	
4.79032	 18.483035	
4.82359	 18.480631	
4.85685	 18.481163	
4.89012	 18.491999	
4.92339	 18.514375	
4.95665	 18.537993	
4.98992	 18.543176	
5.02319	 18.529869	
5.05645	 18.521412	
5.08972	 18.527948	
5.12298	 18.534691	
5.15625	 18.530673	
5.18952	 18.522298	
5.22278	 18.516819	
5.25605	 18.514539	
5.28931	 18.516768	
5.32258	 18.525942	
5.35585	 18.535677	
5.38911	 18.534522	
5.42238	 18.525811	
5.45565	 18.519593	
5.48891	 18.509545	
5.52218	 18.488440	
5.55544	 18.465001	
5.58871	 18.451312	
5.62198	 18.450462	
5.65524	 18.452702	
5.68851	 18.446710	
5.72177	 18.435949	
5.75504	 18.431329	
5.78831	 18.436053	
5.82157	 18.447791	
5.85484	 18.462847	
5.8881	 18.473363	
5.92137	 18.474358	
5.95464	 18.469929	
5.9879	 18.463227	
6.02117	 18.452569	
6.05444	 18.439449	
6.0877	 18.429831	
6.12097	 18.429539	
6.15423	 18.439298	
6.1875	 18.454691	
6.22077	 18.476300	
6.25403	 18.505832	
6.2873	 18.527112	
6.32056	 18.520755	
6.35383	 18.495537	
6.3871	 18.477659	
6.42036	 18.479756	
6.45363	 18.493688	
6.4869	 18.504662	
6.52016	 18.504592	
6.55343	 18.493529	
6.58669	 18.479398	
6.61996	 18.476133	
6.65323	 18.487311	
6.68649	 18.496840	
6.71976	 18.491777	
6.75302	 18.478469	
6.78629	 18.466667	
6.81956	 18.461299	
6.85282	 18.465697	
6.88609	 18.476592	
6.91935	 18.488216	
6.95262	 18.502379	
6.98589	 18.521870	
7.01915	 18.539097	
7.05242	 18.541349	
7.08569	 18.526826	
7.11895	 18.510016	
7.15222	 18.505926	
7.18548	 18.511589	
7.21875	 18.513879	
7.25202	 18.511190	
7.28528	 18.510970	
7.31855	 18.512353	
7.35181	 18.506605	
7.38508	 18.494642	
7.41835	 18.493359	
7.45161	 18.511478	
7.48488	 18.531925	
7.51815	 18.534215	
7.55141	 18.517892	
7.58468	 18.498609	
7.61794	 18.491907	
7.65121	 18.499307	
7.68448	 18.511784	
7.71774	 18.522346	
7.75101	 18.526660	
7.78427	 18.521761	
7.81754	 18.511287	
7.85081	 18.504358	
7.88407	 18.506704	
7.91734	 18.514794	
7.9506	 18.520175	
7.98387	 18.522003	
8.01714	 18.526372	
8.0504	 18.529519	
8.08367	 18.520711	
8.11694	 18.502411	
8.1502	 18.487992	
8.18347	 18.484288	
8.21673	 18.486652	
8.25	 18.485744	
8.28327	 18.479269	
8.31653	 18.471861	
8.3498	 18.462850	
8.38306	 18.451860	
8.41633	 18.444798	
8.4496	 18.441878	
8.48286	 18.439480	
8.51613	 18.439312	
8.5494	 18.444324	
8.58266	 18.454077	
8.61593	 18.463379	
8.64919	 18.467114	
8.68246	 18.469106	
8.71573	 18.476440	
8.74899	 18.487185	
8.78226	 18.493552	
8.81552	 18.490914	
8.84879	 18.478021	
8.88206	 18.458653	
8.91532	 18.445341	
8.94859	 18.448438	
8.98185	 18.462534	
9.01512	 18.474682	
9.04839	 18.480793	
9.08165	 18.483897	
9.11492	 18.482757	
9.14819	 18.473627	
9.18145	 18.461074	
9.21472	 18.455329	
9.24798	 18.455911	
9.28125	 18.454142	
9.31452	 18.453633	
9.34778	 18.466476	
9.38105	 18.492047	
9.41431	 18.515349	
9.44758	 18.522709	
9.48085	 18.513789	
9.51411	 18.496648	
9.54738	 18.476943	
9.58065	 18.459274	
9.61391	 18.448635	
9.64718	 18.448264	
9.68044	 18.460399	
9.71371	 18.479029	
9.74698	 18.489022	
9.78024	 18.483355	
9.81351	 18.469405	
9.84677	 18.457803	
9.88004	 18.453088	
9.91331	 18.449182	
9.94657	 18.437789	
9.97984	 18.425285	
10.0131	 18.422907	
10.0464	 18.426626	
10.0796	 18.429921	
10.1129	 18.436742	
10.1462	 18.448685	
10.1794	 18.461252	
10.2127	 18.471060	
10.246	 18.476213	
10.2792	 18.479327	
10.3125	 18.485120	
10.3458	 18.487494	
10.379	 18.475193	
10.4123	 18.451569	
10.4456	 18.434787	
10.4788	 18.438269	
10.5121	 18.455897	
10.5454	 18.469934	
10.5786	 18.470569	
10.6119	 18.459095	
10.6452	 18.439612	
10.6784	 18.423822	
10.7117	 18.427077	
10.745	 18.443679	
10.7782	 18.451597	
10.8115	 18.444573	
10.8448	 18.435339	
10.878	 18.435146	
10.9113	 18.443078	
10.9446	 18.449262	
10.9778	 18.448234	
11.0111	 18.445288	
11.0444	 18.444338	
11.0776	 18.444591	
11.1109	 18.450816	
11.1442	 18.466018	
11.1774	 18.481344	
11.2107	 18.489182	
11.244	 18.490032	
11.2772	 18.485579	
11.3105	 18.481436	
11.3437	 18.484245	
11.377	 18.491018	
11.4103	 18.493147	
11.4435	 18.487175	
11.4768	 18.486313	
11.5101	 18.521843	
11.5433	 18.602463	
